<svg width="21" height="22" viewBox="0 0 21 22" fill="none" xmlns="http://www.w3.org/2000/svg">
<g clip-path="url(#clip0)">
<path d="M20.9949 22V21.9991H21.0001V13.9306C21.0001 9.98342 20.189 6.94284 15.7842 6.94284C13.6667 6.94284 12.2457 8.16017 11.6656 9.31426H11.6044V7.31134H7.42798V21.9991H11.7767V14.7263C11.7767 12.8113 12.1232 10.9597 14.3869 10.9597C16.6172 10.9597 16.6505 13.145 16.6505 14.8491V22H20.9949Z" fill="#050007"/>
<path d="M0.346436 7.31224H4.70044V22H0.346436V7.31224Z" fill="#050007"/>
<path d="M2.52175 0C1.12962 0 0 1.18342 0 2.64183C0 4.10025 1.12962 5.30842 2.52175 5.30842C3.91387 5.30842 5.0435 4.10025 5.0435 2.64183C5.04262 1.18342 3.913 0 2.52175 0V0Z" fill="#050007"/>
</g>
<defs>
<clipPath id="clip0">
<rect width="21" height="22" fill="white"/>
</clipPath>
</defs>
</svg>
